<mxfile host="app.diagrams.net" modified="2022-11-12T11:56:39.482Z" agent="5.0 (Windows NT 10.0; Win64; x64) AppleWebKit/537.36 (KHTML, like Gecko) Chrome/105.0.0.0 Safari/537.36 OPR/91.0.4516.106 (Edition Yx GX)" etag="d5tJp2VLMQocgiesHyUg" version="20.5.3" type="github">
  <diagram id="GjZHZSWSAXY1oZzWhPel" name="Страница 1">
    <mxGraphModel dx="1381" dy="795" grid="0" gridSize="10" guides="1" tooltips="1" connect="1" arrows="1" fold="1" page="0" pageScale="1" pageWidth="827" pageHeight="1169" math="0" shadow="0">
      <root>
        <mxCell id="0" />
        <mxCell id="1" parent="0" />
        <mxCell id="qKDc3PP0oFBXToIeIh_a-20" style="edgeStyle=orthogonalEdgeStyle;rounded=0;orthogonalLoop=1;jettySize=auto;html=1;exitX=0.5;exitY=1;exitDx=0;exitDy=0;" edge="1" parent="1" source="qKDc3PP0oFBXToIeIh_a-1" target="qKDc3PP0oFBXToIeIh_a-6">
          <mxGeometry relative="1" as="geometry" />
        </mxCell>
        <mxCell id="qKDc3PP0oFBXToIeIh_a-1" value="start" style="ellipse;whiteSpace=wrap;html=1;" vertex="1" parent="1">
          <mxGeometry x="249" y="114" width="120" height="80" as="geometry" />
        </mxCell>
        <mxCell id="qKDc3PP0oFBXToIeIh_a-8" style="edgeStyle=orthogonalEdgeStyle;rounded=0;orthogonalLoop=1;jettySize=auto;html=1;" edge="1" parent="1" source="qKDc3PP0oFBXToIeIh_a-6" target="qKDc3PP0oFBXToIeIh_a-9">
          <mxGeometry relative="1" as="geometry">
            <mxPoint x="309" y="299" as="targetPoint" />
          </mxGeometry>
        </mxCell>
        <mxCell id="qKDc3PP0oFBXToIeIh_a-6" value="int n" style="shape=parallelogram;perimeter=parallelogramPerimeter;whiteSpace=wrap;html=1;fixedSize=1;" vertex="1" parent="1">
          <mxGeometry x="249" y="214" width="120" height="60" as="geometry" />
        </mxCell>
        <mxCell id="qKDc3PP0oFBXToIeIh_a-11" value="" style="edgeStyle=orthogonalEdgeStyle;rounded=0;orthogonalLoop=1;jettySize=auto;html=1;" edge="1" parent="1" source="qKDc3PP0oFBXToIeIh_a-9" target="qKDc3PP0oFBXToIeIh_a-10">
          <mxGeometry relative="1" as="geometry" />
        </mxCell>
        <mxCell id="qKDc3PP0oFBXToIeIh_a-9" value="string[] array&lt;br&gt;string subarray" style="rounded=0;whiteSpace=wrap;html=1;" vertex="1" parent="1">
          <mxGeometry x="249" y="305" width="120" height="60" as="geometry" />
        </mxCell>
        <mxCell id="qKDc3PP0oFBXToIeIh_a-13" value="" style="edgeStyle=orthogonalEdgeStyle;rounded=0;orthogonalLoop=1;jettySize=auto;html=1;" edge="1" parent="1" source="qKDc3PP0oFBXToIeIh_a-10" target="qKDc3PP0oFBXToIeIh_a-12">
          <mxGeometry relative="1" as="geometry" />
        </mxCell>
        <mxCell id="qKDc3PP0oFBXToIeIh_a-10" value="int i = 0" style="whiteSpace=wrap;html=1;rounded=0;" vertex="1" parent="1">
          <mxGeometry x="249" y="401" width="120" height="60" as="geometry" />
        </mxCell>
        <mxCell id="qKDc3PP0oFBXToIeIh_a-19" value="yes" style="edgeStyle=orthogonalEdgeStyle;rounded=0;orthogonalLoop=1;jettySize=auto;html=1;" edge="1" parent="1" source="qKDc3PP0oFBXToIeIh_a-12" target="qKDc3PP0oFBXToIeIh_a-14">
          <mxGeometry relative="1" as="geometry" />
        </mxCell>
        <mxCell id="qKDc3PP0oFBXToIeIh_a-32" value="no" style="edgeStyle=orthogonalEdgeStyle;rounded=0;orthogonalLoop=1;jettySize=auto;html=1;entryX=1;entryY=0.5;entryDx=0;entryDy=0;" edge="1" parent="1" source="qKDc3PP0oFBXToIeIh_a-12" target="qKDc3PP0oFBXToIeIh_a-29">
          <mxGeometry relative="1" as="geometry">
            <Array as="points">
              <mxPoint x="479" y="550" />
              <mxPoint x="479" y="1124" />
            </Array>
          </mxGeometry>
        </mxCell>
        <mxCell id="qKDc3PP0oFBXToIeIh_a-12" value="i &amp;lt; n" style="rhombus;whiteSpace=wrap;html=1;rounded=0;fillColor=#f8cecc;strokeColor=#b85450;" vertex="1" parent="1">
          <mxGeometry x="269" y="510" width="80" height="80" as="geometry" />
        </mxCell>
        <mxCell id="qKDc3PP0oFBXToIeIh_a-16" value="" style="edgeStyle=orthogonalEdgeStyle;rounded=0;orthogonalLoop=1;jettySize=auto;html=1;" edge="1" parent="1" source="qKDc3PP0oFBXToIeIh_a-14" target="qKDc3PP0oFBXToIeIh_a-15">
          <mxGeometry relative="1" as="geometry" />
        </mxCell>
        <mxCell id="qKDc3PP0oFBXToIeIh_a-14" value="array [i]" style="shape=parallelogram;perimeter=parallelogramPerimeter;whiteSpace=wrap;html=1;fixedSize=1;" vertex="1" parent="1">
          <mxGeometry x="248.5" y="633" width="120" height="60" as="geometry" />
        </mxCell>
        <mxCell id="qKDc3PP0oFBXToIeIh_a-18" value="yes" style="edgeStyle=orthogonalEdgeStyle;rounded=0;orthogonalLoop=1;jettySize=auto;html=1;" edge="1" parent="1" source="qKDc3PP0oFBXToIeIh_a-15" target="qKDc3PP0oFBXToIeIh_a-17">
          <mxGeometry relative="1" as="geometry" />
        </mxCell>
        <mxCell id="qKDc3PP0oFBXToIeIh_a-25" value="no" style="edgeStyle=orthogonalEdgeStyle;rounded=0;orthogonalLoop=1;jettySize=auto;html=1;entryX=1;entryY=0.5;entryDx=0;entryDy=0;" edge="1" parent="1" source="qKDc3PP0oFBXToIeIh_a-15" target="qKDc3PP0oFBXToIeIh_a-21">
          <mxGeometry relative="1" as="geometry">
            <Array as="points">
              <mxPoint x="420" y="777" />
              <mxPoint x="420" y="1001" />
            </Array>
          </mxGeometry>
        </mxCell>
        <mxCell id="qKDc3PP0oFBXToIeIh_a-15" value="array [i].length &amp;lt;=3" style="rhombus;whiteSpace=wrap;html=1;fillColor=#d5e8d4;strokeColor=#82b366;" vertex="1" parent="1">
          <mxGeometry x="246.5" y="731" width="123" height="92" as="geometry" />
        </mxCell>
        <mxCell id="qKDc3PP0oFBXToIeIh_a-22" value="" style="edgeStyle=orthogonalEdgeStyle;rounded=0;orthogonalLoop=1;jettySize=auto;html=1;" edge="1" parent="1" source="qKDc3PP0oFBXToIeIh_a-17" target="qKDc3PP0oFBXToIeIh_a-21">
          <mxGeometry relative="1" as="geometry" />
        </mxCell>
        <mxCell id="qKDc3PP0oFBXToIeIh_a-17" value="subarray [i] = array [i]" style="whiteSpace=wrap;html=1;" vertex="1" parent="1">
          <mxGeometry x="248" y="873" width="120" height="60" as="geometry" />
        </mxCell>
        <mxCell id="qKDc3PP0oFBXToIeIh_a-24" style="edgeStyle=orthogonalEdgeStyle;rounded=0;orthogonalLoop=1;jettySize=auto;html=1;entryX=0;entryY=0.5;entryDx=0;entryDy=0;" edge="1" parent="1" source="qKDc3PP0oFBXToIeIh_a-21" target="qKDc3PP0oFBXToIeIh_a-12">
          <mxGeometry relative="1" as="geometry">
            <Array as="points">
              <mxPoint x="190" y="1001" />
              <mxPoint x="190" y="550" />
            </Array>
          </mxGeometry>
        </mxCell>
        <mxCell id="qKDc3PP0oFBXToIeIh_a-31" style="edgeStyle=orthogonalEdgeStyle;rounded=0;orthogonalLoop=1;jettySize=auto;html=1;" edge="1" parent="1" source="qKDc3PP0oFBXToIeIh_a-21" target="qKDc3PP0oFBXToIeIh_a-29">
          <mxGeometry relative="1" as="geometry" />
        </mxCell>
        <mxCell id="qKDc3PP0oFBXToIeIh_a-21" value="i ++" style="whiteSpace=wrap;html=1;" vertex="1" parent="1">
          <mxGeometry x="248.5" y="971" width="120" height="60" as="geometry" />
        </mxCell>
        <mxCell id="qKDc3PP0oFBXToIeIh_a-36" value="yes" style="edgeStyle=orthogonalEdgeStyle;rounded=0;orthogonalLoop=1;jettySize=auto;html=1;entryX=0.5;entryY=0;entryDx=0;entryDy=0;" edge="1" parent="1" source="qKDc3PP0oFBXToIeIh_a-28" target="qKDc3PP0oFBXToIeIh_a-35">
          <mxGeometry relative="1" as="geometry" />
        </mxCell>
        <mxCell id="qKDc3PP0oFBXToIeIh_a-44" value="no" style="edgeStyle=orthogonalEdgeStyle;rounded=0;orthogonalLoop=1;jettySize=auto;html=1;entryX=1;entryY=0.5;entryDx=0;entryDy=0;" edge="1" parent="1" source="qKDc3PP0oFBXToIeIh_a-28" target="qKDc3PP0oFBXToIeIh_a-39">
          <mxGeometry relative="1" as="geometry">
            <Array as="points">
              <mxPoint x="462" y="1241" />
              <mxPoint x="462" y="1740" />
            </Array>
          </mxGeometry>
        </mxCell>
        <mxCell id="qKDc3PP0oFBXToIeIh_a-28" value="i &amp;lt; n" style="rhombus;whiteSpace=wrap;html=1;fillColor=#f8cecc;strokeColor=#b85450;" vertex="1" parent="1">
          <mxGeometry x="268" y="1201" width="80" height="80" as="geometry" />
        </mxCell>
        <mxCell id="qKDc3PP0oFBXToIeIh_a-33" style="edgeStyle=orthogonalEdgeStyle;rounded=0;orthogonalLoop=1;jettySize=auto;html=1;entryX=0.5;entryY=0;entryDx=0;entryDy=0;" edge="1" parent="1" source="qKDc3PP0oFBXToIeIh_a-29" target="qKDc3PP0oFBXToIeIh_a-28">
          <mxGeometry relative="1" as="geometry" />
        </mxCell>
        <mxCell id="qKDc3PP0oFBXToIeIh_a-29" value="i = 0" style="rounded=0;whiteSpace=wrap;html=1;" vertex="1" parent="1">
          <mxGeometry x="248.5" y="1094" width="120" height="60" as="geometry" />
        </mxCell>
        <mxCell id="qKDc3PP0oFBXToIeIh_a-38" value="yes" style="edgeStyle=orthogonalEdgeStyle;rounded=0;orthogonalLoop=1;jettySize=auto;html=1;" edge="1" parent="1" source="qKDc3PP0oFBXToIeIh_a-35" target="qKDc3PP0oFBXToIeIh_a-37">
          <mxGeometry relative="1" as="geometry" />
        </mxCell>
        <mxCell id="qKDc3PP0oFBXToIeIh_a-45" value="no" style="edgeStyle=orthogonalEdgeStyle;rounded=0;orthogonalLoop=1;jettySize=auto;html=1;entryX=1;entryY=0.5;entryDx=0;entryDy=0;" edge="1" parent="1" source="qKDc3PP0oFBXToIeIh_a-35" target="qKDc3PP0oFBXToIeIh_a-41">
          <mxGeometry relative="1" as="geometry">
            <Array as="points">
              <mxPoint x="393" y="1369" />
              <mxPoint x="393" y="1623" />
            </Array>
          </mxGeometry>
        </mxCell>
        <mxCell id="qKDc3PP0oFBXToIeIh_a-35" value="subarray [i]&amp;nbsp; != null" style="rhombus;whiteSpace=wrap;html=1;fillColor=#d5e8d4;strokeColor=#82b366;" vertex="1" parent="1">
          <mxGeometry x="246" y="1318" width="124" height="101" as="geometry" />
        </mxCell>
        <mxCell id="qKDc3PP0oFBXToIeIh_a-42" style="edgeStyle=orthogonalEdgeStyle;rounded=0;orthogonalLoop=1;jettySize=auto;html=1;entryX=0.5;entryY=0;entryDx=0;entryDy=0;" edge="1" parent="1" source="qKDc3PP0oFBXToIeIh_a-37" target="qKDc3PP0oFBXToIeIh_a-41">
          <mxGeometry relative="1" as="geometry" />
        </mxCell>
        <mxCell id="qKDc3PP0oFBXToIeIh_a-37" value="&quot;subarray [i]&quot; + &#39;\t&quot;" style="shape=document;whiteSpace=wrap;html=1;boundedLbl=1;" vertex="1" parent="1">
          <mxGeometry x="248" y="1477" width="120" height="80" as="geometry" />
        </mxCell>
        <mxCell id="qKDc3PP0oFBXToIeIh_a-39" value="finish" style="ellipse;whiteSpace=wrap;html=1;" vertex="1" parent="1">
          <mxGeometry x="248" y="1700" width="120" height="80" as="geometry" />
        </mxCell>
        <mxCell id="qKDc3PP0oFBXToIeIh_a-43" style="edgeStyle=orthogonalEdgeStyle;rounded=0;orthogonalLoop=1;jettySize=auto;html=1;entryX=0;entryY=0.5;entryDx=0;entryDy=0;" edge="1" parent="1" source="qKDc3PP0oFBXToIeIh_a-41" target="qKDc3PP0oFBXToIeIh_a-28">
          <mxGeometry relative="1" as="geometry">
            <Array as="points">
              <mxPoint x="201" y="1623" />
              <mxPoint x="201" y="1241" />
            </Array>
          </mxGeometry>
        </mxCell>
        <mxCell id="qKDc3PP0oFBXToIeIh_a-46" value="" style="edgeStyle=orthogonalEdgeStyle;rounded=0;orthogonalLoop=1;jettySize=auto;html=1;" edge="1" parent="1" source="qKDc3PP0oFBXToIeIh_a-41" target="qKDc3PP0oFBXToIeIh_a-39">
          <mxGeometry relative="1" as="geometry" />
        </mxCell>
        <mxCell id="qKDc3PP0oFBXToIeIh_a-41" value="i ++" style="whiteSpace=wrap;html=1;" vertex="1" parent="1">
          <mxGeometry x="248.5" y="1593" width="120" height="60" as="geometry" />
        </mxCell>
      </root>
    </mxGraphModel>
  </diagram>
</mxfile>
